#!OML:ASF E:\emotionWalksFemale\Project 1\Capture day 1\Session 1\Female1.ASF
:FULLY-SPECIFIED
:DEGREES
4896
root 6.61722 14.5625 41.5467 546.966 49.4373 180.001
lowerback 15.8862 2.18278 4.22163
upperback 0.16939 3.78791 0.430958
thorax -8.49711 1.6913 -2.78989
lowerneck -8.33852 -2.2098 -3.978
upperneck -21.149 -0.837428 1.2879
head -5.00517 0.579875 1.02312
rclavicle -7.45443e-014 4.77083e-015
rhumerus -11.982 19.4162 -83.4429
rradius 32.4977
rwrist 17.5266
rhand -4.80423 -51.8081
rfingers 7.12502
rthumb 20.9815 -80.6932
lclavicle -7.45443e-014 4.77083e-015
lhumerus -23.9312 5.0857 81.308
lradius 36.5104
lwrist -13.6426
lhand -12.6414 -33.9417
lfingers 7.12502
lthumb 13.4389 -4.39524
rfemur -22.14 -10.1898 30.6079
rtibia 43.7672
rfoot -31.1355 -18.9507
rtoes 4.14254
lfemur -40.8901 -13.202 -23.244
ltibia 43.4038
lfoot -27.961 -2.21865
ltoes -25.372
4897
root 6.61344 14.5531 41.5664 546.631 48.6342 179.732
lowerback 15.9646 2.16575 3.91768
upperback 0.206797 3.72191 0.508399
thorax -8.52944 1.67454 -2.52479
lowerneck -8.33312 -2.20846 -3.89171
upperneck -21.1769 -0.812665 1.36274
head -5.01486 0.587731 1.03138
rclavicle -7.67309e-014 1.43125e-014
rhumerus -11.7624 18.8609 -83.0619
rradius 33.1119
rwrist 17.0623
rhand -4.90445 -50.7602
rfingers 7.12502
rthumb 20.8852 -79.656
lclavicle -7.67309e-014 1.43125e-014
lhumerus -24.1068 5.04387 81.4298
lradius 36.775
lwrist -13.1965
lhand -13.2961 -33.385
lfingers 7.12502
lthumb 12.8078 -3.79787
rfemur -22.0775 -10.5366 30.5311
rtibia 43.7519
rfoot -31.1728 -19.4272
rtoes 3.91309
lfemur -40.7492 -12.7821 -23.7352
ltibia 43.4571
lfoot -27.763 -2.72636
ltoes -22.866
4898
root 6.60919 14.547 41.5762 546.518 47.8508 179.709
lowerback 15.9768 2.15067 3.92624
upperback 0.213282 3.71775 0.629517
thorax -8.53766 1.67598 -2.39943
lowerneck -8.32556 -2.29394 -3.91786
upperneck -21.1843 -0.910909 1.40401
head -5.01513 0.544283 1.05
rclavicle 2.72335e-014 1.11319e-014
rhumerus -11.5332 18.236 -82.6417
rradius 33.5378
rwrist 16.7473
rhand -5.0647 -49.9833
rfingers 7.12502
rthumb 20.7312 -78.8959
lclavicle 2.72335e-014 1.11319e-014
lhumerus -24.446 4.75886 81.602
lradius 37.1875
lwrist -12.3942
lhand -13.3545 -33.1235
lfingers 7.12502
lthumb 12.7515 -3.5329
rfemur -22.0343 -10.837 30.5932
rtibia 43.713
rfoot -31.33 -19.7935
rtoes 4.32447
lfemur -40.7514 -12.5625 -23.9947
ltibia 43.5
lfoot -27.8456 -2.01899
ltoes -25.3811
4899
root 6.60436 14.5515 41.5823 546.607 47.1893 180.025
lowerback 16.0171 2.10579 4.26823
upperback 0.199492 3.73687 0.732498
thorax -8.56052 1.67377 -2.48814
lowerneck -8.46486 -2.32978 -3.94071
upperneck -21 -0.933875 1.54107
head -4.93301 0.52467 1.09658
rclavicle -5.54609e-014 4.6118e-014
rhumerus -11.3076 17.4176 -82.4043
rradius 33.6171
rwrist 16.3421
rhand -5.64172 -50.2868
rfingers 7.12502
rthumb 20.1767 -79.2589
lclavicle -5.54609e-014 4.6118e-014
lhumerus -24.911 4.80868 81.4968
lradius 37.6374
lwrist -11.644
lhand -12.6592 -33.6038
lfingers 7.12502
lthumb 13.4217 -4.05615
rfemur -21.8881 -10.9645 30.8721
rtibia 43.5877
rfoot -31.2975 -20.302
rtoes 4.89378
lfemur -40.677 -12.2538 -23.9437
ltibia 43.5542
lfoot -27.9739 -2.41678
ltoes -23.6134
4900
root 6.60018 14.5504 41.5907 547.007 46.5749 180.377
lowerback 15.6863 2.11592 4.50508
upperback 0.126055 3.79072 0.87955
thorax -8.44656 1.69595 -2.45969
lowerneck -7.6324 -2.25603 -4.47584
upperneck -21.8101 -0.724238 2.00409
head -5.31858 0.670964 1.33224
rclavicle -2.20651e-014 -6.36111e-015
rhumerus -11.1121 16.7645 -82.1003
rradius 33.6843
rwrist 15.7394
rhand -5.77722 -51.4954
rfingers 7.12502
rthumb 20.0465 -80.4813
lclavicle -2.20651e-014 -6.36111e-015
lhumerus -25.2602 4.78694 81.5746
lradius 37.9736
lwrist -10.9789
lhand -12.3769 -33.6609
lfingers 7.12502
lthumb 13.6938 -4.13143
rfemur -22.0541 -10.9113 31.2806
rtibia 43.4489
rfoot -30.8877 -21.018
rtoes 5.05458
lfemur -40.9326 -10.9648 -24.2011
ltibia 43.5509
lfoot -28.0761 -2.61961
ltoes -27.9153
4901
root 6.59417 14.547 41.6025 546.516 45.7201 180.33
lowerback 16.0949 2.04713 4.50496
upperback 0.216604 3.74391 1.03119
thorax -8.59228 1.6774 -2.30637
lowerneck -7.89448 -2.33272 -4.15137
upperneck -21.4932 -0.906512 1.58077
head -5.17724 0.573182 1.14567
rclavicle 2.56432e-014 -4.85035e-014
rhumerus -10.8561 16.0737 -81.64
rradius 33.9114
rwrist 15.71
rhand -4.4934 -52.3466
rfingers 7.12502
rthumb 21.2801 -81.1983
lclavicle 2.56432e-014 -4.85035e-014
lhumerus -25.7529 4.06824 81.8922
lradius 38.6131
lwrist -10.1103
lhand -12.9467 -33.1765
lfingers 7.12502
lthumb 13.1446 -3.61079
rfemur -21.5792 -11.2077 31.2843
rtibia 43.413
rfoot -30.6977 -21.7118
rtoes 4.93717
lfemur -40.4763 -11.6784 -24.2459
ltibia 43.526
lfoot -28.2011 -1.71875
ltoes -28.8211
4902
root 6.58934 14.5548 41.6149 546.211 44.9479 180.006
lowerback 16.0487 2.03006 4.36533
upperback 0.287977 3.68965 1.00438
thorax -8.49854 1.6614 -2.24033
lowerneck -8.03227 -2.33465 -4.46173
upperneck -21.5693 -0.781197 2.02225
head -5.17684 0.651648 1.33377
rclavicle 5.58585e-014 3.02153e-014
rhumerus -10.3364 14.8221 -81.3198
rradius 33.8867
rwrist 16.3703
rhand -2.94658 -51.6042
rfingers 7.12502
rthumb 22.7652 -80.281
lclavicle 5.58585e-014 3.02153e-014
lhumerus -26.1467 3.62471 82.07
lradius 39.219
lwrist -9.39737
lhand -14.0491 -33.1211
lfingers 7.12502
lthumb 12.0818 -3.48985
rfemur -21.5694 -11.2631 31.127
rtibia 43.5203
rfoot -30.8808 -22.2335
rtoes 5.66408
lfemur -40.3153 -11.7302 -24.613
ltibia 43.4083
lfoot -27.9924 -2.5348
ltoes -23.3537
